<?xml version="1.0" encoding="UTF-8"?>
<svg width="340.16" height="343.58" version="1.1" viewBox="0 0 340.16 343.58" xmlns="http://www.w3.org/2000/svg">
 <defs>
  <style>.cls-1{stroke:#974493;stroke-width:5.29px;}.cls-1,.cls-2{fill:#fff;stroke-miterlimit:10;}.cls-3{fill:#974493;}.cls-2{stroke:#1d1d1b;stroke-width:5.29px;}.cls-4{fill:#1d1d1b;}</style>
 </defs>
 <g transform="translate(-149.89 -450.55)">
  <rect class="cls-3" x="149.89" y="450.55" width="340.16" height="343.58" rx="11.7" ry="11.7"/>
  <rect class="cls-1" x="161.45" y="453.24" width="325.54" height="325.54" rx="11.14" ry="11.14"/>
  <path class="cls-3" d="m201.74 486.56v78.26h-10.22v-78.26z"/>
  <path class="cls-3" d="m229.44 487.06c6.79-1.17 15.81-1.76 25.18-1.76 15.11 0 24.71 2.46 32.44 7.85 8.67 5.97 14.29 15.81 14.29 30.33 0 16.16-6.09 26.58-13.7 32.56-8.67 6.79-21.67 9.72-37.12 9.72-10.19 0-16.98-0.7-21.08-1.41v-77.29zm21.2 62.07c1.05 0.23 3.04 0.23 4.45 0.23 13.7 0.23 23.89-7.38 23.89-25.18 0-15.46-9.25-22.72-21.9-22.72-3.28 0-5.39 0.23-6.44 0.47z"/>
  <polygon class="cls-3" points="384.99 491.18 350.5 499.64 350.5 552.63 384.63 561.09 384.63 565.25 328.67 565.25 328.67 487.02 384.99 487.02"/>
  <rect class="cls-3" x="362.01" y="523.22" width="19.02" height="5.64"/>
  <path class="cls-3" d="m305.92 660.28c-2.93 1.52-10.42 3.28-19.79 3.28-29.51 0-42.51-18.39-42.51-39.35 0-27.75 20.38-41.93 43.92-41.93 9.02 0 16.4 1.76 19.67 3.4l-4.1 16.75c-3.4-1.41-8.31-2.81-14.64-2.81-12.06 0-22.6 7.14-22.6 23.19 0 14.29 8.55 23.19 23.07 23.19 5.04 0 10.77-0.94 14.05-2.23z"/>
  <path class="cls-3" d="m329.1 583.46h20.96v33.49h0.23c1.64-2.93 3.4-5.86 5.04-8.67l15.22-24.83h26l-25.06 33.61 26 45.32h-24.48l-16.63-31.97-6.32 8.08v23.89h-20.96v-78.93z"/>
  <path class="cls-3" d="m339.61 680.74v78.93h-10.31v-78.93z"/>
  <path class="cls-3" d="m381.89 734.84-8.2 24.83h-10.54l26.94-78.93h12.18l26.94 78.93h-10.89l-8.43-24.83h-27.99zm26-7.96-7.85-22.72c-1.76-5.15-2.93-9.84-4.1-14.4h-0.23c-1.17 4.57-2.34 9.49-3.98 14.29l-7.73 22.84h23.89z"/>
  <path class="cls-3" d="m449.69 753.58c0-4.22 2.93-7.38 7.03-7.38s6.91 3.04 6.91 7.38-2.81 7.38-7.14 7.38c-3.98 0-6.79-3.16-6.79-7.38z"/>
 </g>
</svg>
